TITLE ""
FILE "2Q_t_0953-0970.mp3" MP3
  TRACK 01 AUDIO
    TITLE "2Q_t_0953-0970_01"
    INDEX 01 00:00:00
  TRACK 02 AUDIO
    TITLE "2Q_t_0953-0970_02"
    INDEX 01 00:00:14
  TRACK 03 AUDIO
    TITLE "2Q_t_0953-0970_03"
    INDEX 01 00:01:16
  TRACK 04 AUDIO
    TITLE "2Q_t_0953-0970_04"
    INDEX 01 00:01:69
  TRACK 05 AUDIO
    TITLE "2Q_t_0953-0970_05"
    INDEX 01 00:03:63
  TRACK 06 AUDIO
    TITLE "2Q_t_0953-0970_06"
    INDEX 01 00:04:32
  TRACK 07 AUDIO
    TITLE "2Q_t_0953-0970_07"
    INDEX 01 00:05:51
  TRACK 08 AUDIO
    TITLE "2Q_t_0953-0970_08"
    INDEX 01 00:06:25
  TRACK 09 AUDIO
    TITLE "2Q_t_0953-0970_09"
    INDEX 01 00:08:31
  TRACK 10 AUDIO
    TITLE "2Q_t_0953-0970_10"
    INDEX 01 00:08:74
  TRACK 11 AUDIO
    TITLE "2Q_t_0953-0970_11"
    INDEX 01 00:10:36
  TRACK 12 AUDIO
    TITLE "2Q_t_0953-0970_12"
    INDEX 01 00:11:08
  TRACK 13 AUDIO
    TITLE "2Q_t_0953-0970_13"
    INDEX 01 00:13:23
  TRACK 14 AUDIO
    TITLE "2Q_t_0953-0970_14"
    INDEX 01 00:13:68
  TRACK 15 AUDIO
    TITLE "2Q_t_0953-0970_15"
    INDEX 01 00:15:27
  TRACK 16 AUDIO
    TITLE "2Q_t_0953-0970_16"
    INDEX 01 00:16:00
  TRACK 17 AUDIO
    TITLE "2Q_t_0953-0970_17"
    INDEX 01 00:16:60
  TRACK 18 AUDIO
    TITLE "2Q_t_0953-0970_18"
    INDEX 01 00:17:30
  TRACK 19 AUDIO
    TITLE "2Q_t_0953-0970_19"
    INDEX 01 00:18:53
  TRACK 20 AUDIO
    TITLE "2Q_t_0953-0970_20"
    INDEX 01 00:19:25
  TRACK 21 AUDIO
    TITLE "2Q_t_0953-0970_21"
    INDEX 01 00:21:44
  TRACK 22 AUDIO
    TITLE "2Q_t_0953-0970_22"
    INDEX 01 00:22:14
  TRACK 23 AUDIO
    TITLE "2Q_t_0953-0970_23"
    INDEX 01 00:23:35
  TRACK 24 AUDIO
    TITLE "2Q_t_0953-0970_24"
    INDEX 01 00:24:05
  TRACK 25 AUDIO
    TITLE "2Q_t_0953-0970_25"
    INDEX 01 00:25:73
  TRACK 26 AUDIO
    TITLE "2Q_t_0953-0970_26"
    INDEX 01 00:26:43
  TRACK 27 AUDIO
    TITLE "2Q_t_0953-0970_27"
    INDEX 01 00:27:60
  TRACK 28 AUDIO
    TITLE "2Q_t_0953-0970_28"
    INDEX 01 00:28:30
  TRACK 29 AUDIO
    TITLE "2Q_t_0953-0970_29"
    INDEX 01 00:31:62
  TRACK 30 AUDIO
    TITLE "2Q_t_0953-0970_30"
    INDEX 01 00:32:30
  TRACK 31 AUDIO
    TITLE "2Q_t_0953-0970_31"
    INDEX 01 00:33:35
  TRACK 32 AUDIO
    TITLE "2Q_t_0953-0970_32"
    INDEX 01 00:34:07
  TRACK 33 AUDIO
    TITLE "2Q_t_0953-0970_33"
    INDEX 01 00:34:74
  TRACK 34 AUDIO
    TITLE "2Q_t_0953-0970_34"
    INDEX 01 00:35:44
  TRACK 35 AUDIO
    TITLE "2Q_t_0953-0970_35"
    INDEX 01 00:37:06
  TRACK 36 AUDIO
    TITLE "2Q_t_0953-0970_36"
    INDEX 01 00:37:53
  TRACK 37 AUDIO
    TITLE "2Q_t_0953-0970_37"
    INDEX 01 00:39:22
  TRACK 38 AUDIO
    TITLE "2Q_t_0953-0970_38"
    INDEX 01 00:39:67
  TRACK 39 AUDIO
    TITLE "2Q_t_0953-0970_39"
    INDEX 01 00:40:73
  TRACK 40 AUDIO
    TITLE "2Q_t_0953-0970_40"
    INDEX 01 00:41:41
  TRACK 41 AUDIO
    TITLE "2Q_t_0953-0970_41"
    INDEX 01 00:44:19
  TRACK 42 AUDIO
    TITLE "2Q_t_0953-0970_42"
    INDEX 01 00:44:64
  TRACK 43 AUDIO
    TITLE "2Q_t_0953-0970_43"
    INDEX 01 00:46:14
  TRACK 44 AUDIO
    TITLE "2Q_t_0953-0970_44"
    INDEX 01 00:46:69
  TRACK 45 AUDIO
    TITLE "2Q_t_0953-0970_45"
    INDEX 01 00:50:55
  TRACK 46 AUDIO
    TITLE "2Q_t_0953-0970_46"
    INDEX 01 00:51:27
  TRACK 47 AUDIO
    TITLE "2Q_t_0953-0970_47"
    INDEX 01 00:52:31
  TRACK 48 AUDIO
    TITLE "2Q_t_0953-0970_48"
    INDEX 01 00:53:09
  TRACK 49 AUDIO
    TITLE "2Q_t_0953-0970_49"
    INDEX 01 00:54:20
  TRACK 50 AUDIO
    TITLE "2Q_t_0953-0970_50"
    INDEX 01 00:54:63
  TRACK 51 AUDIO
    TITLE "2Q_t_0953-0970_51"
    INDEX 01 00:56:03
  TRACK 52 AUDIO
    TITLE "2Q_t_0953-0970_52"
    INDEX 01 00:56:50
  TRACK 53 AUDIO
    TITLE "2Q_t_0953-0970_53"
    INDEX 01 00:58:57
  TRACK 54 AUDIO
    TITLE "2Q_t_0953-0970_54"
    INDEX 01 00:59:27
  TRACK 55 AUDIO
    TITLE "2Q_t_0953-0970_55"
    INDEX 01 01:00:16
  TRACK 56 AUDIO
    TITLE "2Q_t_0953-0970_56"
    INDEX 01 01:00:71
  TRACK 57 AUDIO
    TITLE "2Q_t_0953-0970_57"
    INDEX 01 01:05:29
  TRACK 58 AUDIO
    TITLE "2Q_t_0953-0970_58"
    INDEX 01 01:05:72
  TRACK 59 AUDIO
    TITLE "2Q_t_0953-0970_59"
    INDEX 01 01:07:11
  TRACK 60 AUDIO
    TITLE "2Q_t_0953-0970_60"
    INDEX 01 01:07:58
  TRACK 61 AUDIO
    TITLE "2Q_t_0953-0970_61"
    INDEX 01 01:10:50
  TRACK 62 AUDIO
    TITLE "2Q_t_0953-0970_62"
    INDEX 01 01:11:18
  TRACK 63 AUDIO
    TITLE "2Q_t_0953-0970_63"
    INDEX 01 01:12:20
  TRACK 64 AUDIO
    TITLE "2Q_t_0953-0970_64"
    INDEX 01 01:12:67
  TRACK 65 AUDIO
    TITLE "2Q_t_0953-0970_65"
    INDEX 01 01:15:43
  TRACK 66 AUDIO
    TITLE "2Q_t_0953-0970_66"
    INDEX 01 01:16:13
  TRACK 67 AUDIO
    TITLE "2Q_t_0953-0970_67"
    INDEX 01 01:17:27
  TRACK 68 AUDIO
    TITLE "2Q_t_0953-0970_68"
    INDEX 01 01:17:74
  TRACK 69 AUDIO
    TITLE "2Q_t_0953-0970_69"
    INDEX 01 01:20:25
  TRACK 70 AUDIO
    TITLE "2Q_t_0953-0970_70"
    INDEX 01 01:20:68
  TRACK 71 AUDIO
    TITLE "2Q_t_0953-0970_71"
    INDEX 01 01:22:12
  TRACK 72 AUDIO
    TITLE "2Q_t_0953-0970_72"
    INDEX 01 01:22:59
  TRACK 73 AUDIO
    TITLE "2Q_t_0953-0970_73"
    INDEX 01 01:24:74
